<svg width="300" height="300" viewBox="0 0 300 300" fill="none" xmlns="http://www.w3.org/2000/svg">
<path fill-rule="evenodd" clip-rule="evenodd" d="M66.1148 0.852357C36.2786 4.8104 10.4741 27.9907 2.10712 58.3534C0.174194 65.3687 0.00125363 72.9085 0.00125363 150.073C0.00125363 244.071 -0.302272 240.22 8.53648 258.255C14.5753 270.577 29.4375 285.432 41.7656 291.468C59.809 300.302 55.9561 299.999 150 299.999C244.044 299.999 240.191 300.302 258.234 291.468C270.563 285.432 285.425 270.577 291.464 258.255C300.302 240.22 299.999 244.071 299.999 150.073C299.999 56.0745 300.302 59.9255 291.464 41.8909C285.421 29.5617 270.56 14.7102 258.234 8.68378C240.351 -0.0613095 244.518 0.286755 154.706 0.0257072C110.383 -0.103641 70.5171 0.267939 66.1148 0.852357ZM187.369 65.6721C208.984 73.3624 226.743 91.0995 234.424 112.671C236.722 119.123 237.611 124.284 237.996 133.389C238.476 144.773 238.342 145.691 235.812 148.382C229.431 155.173 220.606 150.103 220.568 139.625C220.509 124.133 213.584 106.672 203.503 96.5957C193.366 86.4618 175.95 79.597 160.241 79.5394C150.14 79.5029 145.394 71.0812 151.842 64.6373C154.766 61.7141 155.233 61.6353 166.842 62.1256C175.774 62.5031 180.999 63.405 187.369 65.6721ZM110.811 70.7378C118.183 74.4101 128.107 84.6968 131.479 92.159C134.53 98.9145 134.758 109.033 131.98 114.389C130.923 116.428 127.351 121.455 124.044 125.56C118.692 132.202 118.094 133.503 118.604 137.391C120.413 151.185 151.981 181.822 164.383 181.822C166.078 181.822 170.292 179.391 174.626 175.914C185 167.592 188.271 166.127 196.47 166.132C205.012 166.137 211.282 169.043 219.677 176.892C228.821 185.441 231.765 191.374 231.756 201.224C231.75 208.11 231.186 210.471 228.309 215.673C223.935 223.585 216.367 230.562 207.852 234.536C199.188 238.578 183.762 239.442 172.336 236.524C161.452 233.743 142.921 224.542 130.588 215.792C117.001 206.155 93.8911 183.055 84.2488 169.475C75.4947 157.148 66.2889 138.627 63.5066 127.747C60.5878 116.327 61.4513 100.909 65.496 92.2484C69.7171 83.2117 77.0277 75.6037 85.6029 71.3199C94.8216 66.7151 102.384 66.5411 110.811 70.7378ZM179.896 99.9952C193.57 106.682 202.788 120.022 203.834 134.639C204.484 143.727 203.189 147.238 198.535 149.006C194.861 150.403 189.335 148.523 187.602 145.286C186.98 144.123 186.47 141.003 186.47 138.354C186.47 125.234 175.133 113.714 162.155 113.646C155.569 113.611 153.758 112.769 151.696 108.784C149.578 104.689 150.5 100.142 153.958 97.6281C157.939 94.7342 171.707 95.9913 179.896 99.9952Z" fill="#40A5EE"/>
</svg>
